HIERARCHY
ROOT joint_Root
{
	OFFSET 0.0 0.0 0.0
	CHANNELS 6 Xposition Yposition Zposition Zrotation Xrotation Yrotation 
	JOINT Hips
	{
		OFFSET -17.1583 93.1646 452.98
		CHANNELS 6 Xposition Yposition Zposition Zrotation Xrotation Yrotation 
		JOINT Spine
		{
			OFFSET 15.7357 0.0 0.0
			CHANNELS 6 Xposition Yposition Zposition Zrotation Xrotation Yrotation 
			JOINT Chest
			{
				OFFSET 8.98455 -0.406207 0.0
				CHANNELS 6 Xposition Yposition Zposition Zrotation Xrotation Yrotation 
				JOINT Neck
				{
					OFFSET 16.3773 0.0 0.0
					CHANNELS 6 Xposition Yposition Zposition Zrotation Xrotation Yrotation 
					JOINT Head
					{
						OFFSET 6.45672 0.0 0.0
						CHANNELS 6 Xposition Yposition Zposition Zrotation Xrotation Yrotation 
						End Site
						{
							OFFSET 0.0 0.0 0.0
						}
					}
				}
				JOINT Shoulder_L
				{
					OFFSET 12.9942 -0.242716 4.98039
					CHANNELS 6 Xposition Yposition Zposition Zrotation Xrotation Yrotation 
					JOINT UpperArm_L
					{
						OFFSET 5.34809 0.0 0.0
						CHANNELS 6 Xposition Yposition Zposition Zrotation Xrotation Yrotation 
						JOINT LowerArm_L
						{
							OFFSET 24.3286 1.87007e-05 0.0
							CHANNELS 6 Xposition Yposition Zposition Zrotation Xrotation Yrotation 
							JOINT Hand_L
							{
								OFFSET 22.2916 0.0 0.0
								CHANNELS 6 Xposition Yposition Zposition Zrotation Xrotation Yrotation 
								End Site
								{
									OFFSET 0.0 0.0 0.0
								}
							}
						}
					}
				}
				JOINT Shoulder_R
				{
					OFFSET 12.9945 -0.242716 -4.98039
					CHANNELS 6 Xposition Yposition Zposition Zrotation Xrotation Yrotation 
					JOINT UpperArm_R
					{
						OFFSET -5.34813 0.0 0.0
						CHANNELS 6 Xposition Yposition Zposition Zrotation Xrotation Yrotation 
						JOINT LowerArm_R
						{
							OFFSET -24.3289 0.000322201 0.0
							CHANNELS 6 Xposition Yposition Zposition Zrotation Xrotation Yrotation 
							JOINT Hand_R
							{
								OFFSET -22.2915 -0.000108084 0.0
								CHANNELS 6 Xposition Yposition Zposition Zrotation Xrotation Yrotation 
								End Site
								{
									OFFSET 0.0 0.0 0.0
								}
							}
						}
					}
				}
			}
		}
		JOINT UpperLeg_L
		{
			OFFSET -2.19248 -6.46944 0.0
			CHANNELS 6 Xposition Yposition Zposition Zrotation Xrotation Yrotation 
			JOINT LowerLeg_L
			{
				OFFSET 39.0811 0.0 -1.23785e-05
				CHANNELS 6 Xposition Yposition Zposition Zrotation Xrotation Yrotation 
				JOINT Foot_L
				{
					OFFSET 40.9854 0.0 -1.26872e-05
					CHANNELS 6 Xposition Yposition Zposition Zrotation Xrotation Yrotation 
					JOINT Toes_L
					{
						OFFSET 11.7543 0.0 0.0
						CHANNELS 6 Xposition Yposition Zposition Zrotation Xrotation Yrotation 
						End Site
						{
							OFFSET 0.0 0.0 0.0
						}
					}
				}
			}
		}
		JOINT UpperLeg_R
		{
			OFFSET -2.19251 6.46944 0.0
			CHANNELS 6 Xposition Yposition Zposition Zrotation Xrotation Yrotation 
			JOINT LowerLeg_R
			{
				OFFSET -39.0811 -0.00228153 -0.0401928
				CHANNELS 6 Xposition Yposition Zposition Zrotation Xrotation Yrotation 
				JOINT Foot_R
				{
					OFFSET -40.9854 0.0 0.0
					CHANNELS 6 Xposition Yposition Zposition Zrotation Xrotation Yrotation 
					JOINT Toes_R
					{
						OFFSET -11.7543 0.0 0.0
						CHANNELS 6 Xposition Yposition Zposition Zrotation Xrotation Yrotation 
						End Site
						{
							OFFSET 0.0 0.0 0.0
						}
					}
				}
			}
		}
	}
}
MOTION
Frames:	6
Frame Time:	0.0333333
0.000000 0.000000 0.000000 0.000000 0.000000 -0.000000 1.130490 85.314700 429.391000 -87.072300 2.751020 164.602000 15.735700 0.000005 -0.000001 102.260000 82.213100 -100.785000 8.984550 -0.406207 -0.000000 7.421190 3.290010 2.732710 16.377300 -0.000001 -0.000001 -6.047720 3.143160 -0.422625 6.456720 -0.000001 -0.000000 -16.073500 2.928420 -0.806643 12.994200 -0.242716 4.980390 -93.014100 9.053700 -71.499200 5.348090 -0.000007 -0.000001 -50.865800 -38.141400 14.678600 24.328600 0.000019 0.000005 56.551800 22.783100 -75.650700 22.291600 -0.000001 0.000005 41.310200 3.793860 27.085800 12.994500 -0.242716 -4.980390 88.869000 3.914170 -73.870700 -5.348130 -0.000001 -0.000004 -68.237800 5.704560 -10.367500 -24.328900 0.000322 -0.000009 18.444900 5.514870 -73.921300 -22.291500 -0.000108 -0.000004 54.383200 5.393180 -2.720170 -2.192480 -6.469440 -0.000000 -178.447000 2.250740 -50.686900 39.081100 -0.000007 -0.000012 -0.183965 0.002163 89.329100 40.985400 -0.000006 -0.000013 -2.055050 -7.971500 -60.756500 11.754300 -0.000000 0.000003 0.002202 0.055428 -14.328500 -2.192510 6.469440 -0.000001 -175.481000 3.380110 168.458000 -39.081100 -0.002282 -0.040193 -0.001612 0.005519 41.519800 -40.985400 0.000008 0.000006 -0.563652 5.414250 -79.692300 -11.754300 -0.000006 -0.000006 -0.028413 -0.210095 -25.176500
0.000000 0.000000 0.000000 0.000000 0.000000 -0.000000 0.588195 88.196900 421.792000 -90.883200 2.415720 161.879000 15.735700 0.000005 -0.000001 109.074000 83.349200 -109.056000 8.984550 -0.406207 -0.000000 4.815730 4.338010 -0.147112 16.377300 -0.000001 -0.000001 -5.854380 1.756810 0.082193 6.456720 -0.000001 -0.000000 -15.154200 0.411996 -0.231852 12.994200 -0.242716 4.980390 -92.383600 7.185680 -71.594200 5.348090 -0.000007 -0.000001 -45.935700 -41.943700 17.164300 24.328600 0.000019 0.000005 57.761400 21.287700 -77.103700 22.291600 -0.000001 0.000005 42.010300 3.704880 28.275000 12.994500 -0.242716 -4.980390 89.329500 2.375730 -74.236200 -5.348130 -0.000001 -0.000004 -68.447700 4.083500 -13.200900 -24.328900 0.000322 -0.000009 19.170400 3.366030 -80.416000 -22.291500 -0.000108 -0.000004 55.799600 5.390820 -2.640770 -2.192480 -6.469440 -0.000000 179.151000 7.067190 -55.890800 39.081100 -0.000007 -0.000012 -0.141938 0.028901 78.493700 40.985400 -0.000006 -0.000013 -3.118990 -9.800080 -66.664600 11.754300 -0.000000 0.000003 0.002451 0.073649 -13.589800 -2.192510 6.469440 -0.000001 -179.475000 5.625280 174.345000 -39.081100 -0.002282 -0.040193 0.006282 -0.005271 29.472200 -40.985400 0.000008 0.000006 1.151340 4.295080 -65.651300 -11.754300 -0.000006 -0.000006 -0.077441 -0.384725 -32.534700
0.000000 0.000000 0.000000 0.000000 0.000000 -0.000000 0.254602 90.645100 414.177000 -93.568300 1.964860 159.327000 15.735700 0.000005 -0.000001 118.117000 84.342400 -119.223000 8.984550 -0.406207 -0.000000 2.276250 5.381520 -2.318050 16.377300 -0.000001 -0.000001 -5.574620 0.395713 0.533551 6.456720 -0.000001 -0.000000 -13.966900 -1.802030 0.258911 12.994200 -0.242716 4.980390 -91.915400 5.806240 -71.707700 5.348090 -0.000007 -0.000001 -42.364800 -42.172000 19.047100 24.328600 0.000019 0.000005 57.801400 19.937900 -77.880900 22.291600 -0.000001 0.000005 45.667800 3.699460 28.349600 12.994500 -0.242716 -4.980390 89.752100 0.902083 -74.636300 -5.348130 -0.000001 -0.000004 -69.680200 1.981990 -14.637300 -24.328900 0.000322 -0.000009 18.515400 2.608210 -82.263400 -22.291500 -0.000108 -0.000004 56.486900 5.374050 -2.112180 -2.192480 -6.469440 -0.000000 178.952000 10.700500 -57.995600 39.081100 -0.000007 -0.000012 -0.066467 0.033260 63.420300 40.985400 -0.000006 -0.000013 -3.427560 -7.446540 -69.898000 11.754300 -0.000000 0.000003 0.002416 0.069598 -13.754000 -2.192510 6.469440 -0.000001 178.560000 7.114790 178.264000 -39.081100 -0.002282 -0.040193 -0.000082 0.009444 19.818600 -40.985400 0.000008 0.000006 4.863040 1.775360 -47.638000 -11.754300 -0.000006 -0.000006 -0.098677 -0.441263 -34.983400
0.000000 0.000000 0.000000 0.000000 0.000000 -0.000000 0.513457 92.024200 406.038000 -92.821800 0.679872 159.296000 15.735700 0.000005 -0.000001 123.983000 84.383300 -124.857000 8.984550 -0.406207 -0.000000 1.607950 6.322500 -1.835050 16.377300 -0.000001 -0.000001 -5.496540 -0.502318 0.694244 6.456720 -0.000001 -0.000000 -13.631000 -3.290300 -0.207132 12.994200 -0.242716 4.980390 -92.021100 6.064350 -71.528700 5.348090 -0.000007 -0.000001 -40.354700 -41.074800 19.940900 24.328600 0.000019 0.000005 59.123000 19.561000 -78.679400 22.291600 -0.000001 0.000005 46.201900 3.697950 28.368900 12.994500 -0.242716 -4.980390 89.819300 0.666633 -74.831200 -5.348130 -0.000001 -0.000004 -69.750100 0.692663 -15.026700 -24.328900 0.000322 -0.000009 16.866200 2.530350 -81.716000 -22.291500 -0.000108 -0.000004 55.878400 5.383140 -2.397760 -2.192480 -6.469440 -0.000000 -178.832000 11.220100 -54.916500 39.081100 -0.000007 -0.000012 -0.036652 0.034361 46.851000 40.985400 -0.000006 -0.000013 -4.837460 -0.888237 -72.691400 11.754300 -0.000000 0.000003 0.002484 0.080933 -13.294500 -2.192510 6.469440 -0.000001 -179.879000 8.630980 -178.127000 -39.081100 -0.002282 -0.040193 0.007194 -0.013548 15.924700 -40.985400 0.000008 0.000006 4.763570 -1.106790 -31.698300 -11.754300 -0.000006 -0.000006 -0.010306 -0.105907 -20.888500
0.000000 0.000000 0.000000 0.000000 0.000000 -0.000000 0.899131 92.118300 397.457000 -90.555000 -0.205744 160.960000 15.735700 0.000005 -0.000001 125.361000 84.102100 -125.398000 8.984550 -0.406207 -0.000000 1.869400 6.824350 -0.185543 16.377300 -0.000001 -0.000001 -5.538330 -0.697132 0.948568 6.456720 -0.000001 -0.000000 -13.354500 -3.527270 -1.212930 12.994200 -0.242716 4.980390 -92.307400 6.862360 -71.364600 5.348090 -0.000007 -0.000001 -40.516600 -40.520300 21.190500 24.328600 0.000019 0.000005 57.915600 20.257800 -77.752500 22.291600 -0.000001 0.000005 45.658800 3.710760 28.198800 12.994500 -0.242716 -4.980390 89.669200 1.222300 -74.854900 -5.348130 -0.000001 -0.000004 -69.737200 0.686813 -13.772200 -24.328900 0.000322 -0.000009 16.552000 3.268920 -79.140100 -22.291500 -0.000108 -0.000004 56.673400 5.393220 -2.718120 -2.192480 -6.469440 -0.000000 -178.030000 8.019360 -48.356500 39.081100 -0.000007 -0.000012 -0.039716 0.063557 32.000800 40.985400 -0.000006 -0.000013 -7.637170 6.208520 -74.763500 11.754300 -0.000000 0.000003 0.002470 0.090874 -12.891500 -2.192510 6.469440 -0.000001 -177.472000 9.320850 -176.350000 -39.081100 -0.002282 -0.040193 0.024179 -0.055993 20.431400 -40.985400 0.000008 0.000006 2.699520 -0.702473 -21.144000 -11.754300 -0.000006 -0.000006 0.000960 0.149556 -10.508100
0.000000 0.000000 0.000000 0.000000 0.000000 -0.000000 0.871683 91.204300 388.653000 -89.605500 0.621321 162.944000 15.735700 0.000005 -0.000001 122.359000 83.675100 -122.193000 8.984550 -0.406207 -0.000000 2.927580 6.756860 0.159907 16.377300 -0.000001 -0.000001 -6.349950 -0.359277 0.988917 6.456720 -0.000001 -0.000000 -13.035900 -2.732250 -1.198380 12.994200 -0.242716 4.980390 -92.403600 7.257160 -71.619100 5.348090 -0.000007 -0.000001 -43.603600 -40.362700 21.951700 24.328600 0.000019 0.000005 54.175000 22.618700 -74.481600 22.291600 -0.000001 0.000005 45.155200 3.730760 27.931600 12.994500 -0.242716 -4.980390 89.672600 1.255700 -75.386000 -5.348130 -0.000001 -0.000004 -71.911500 0.442310 -10.643800 -24.328900 0.000322 -0.000009 14.062900 4.111740 -74.023000 -22.291500 -0.000108 -0.000004 56.654600 5.419770 -3.591450 -2.192480 -6.469440 -0.000000 -179.742000 4.008750 -42.368300 39.081100 -0.000007 -0.000012 -0.031454 0.067201 25.082200 40.985400 -0.000006 -0.000013 -7.967600 8.635900 -75.821400 11.754300 -0.000000 0.000003 0.002450 0.094051 -12.762700 -2.192510 6.469440 -0.000001 -176.341000 5.421110 -177.168000 -39.081100 -0.002282 -0.040193 -0.007126 0.016391 32.452700 -40.985400 0.000008 0.000006 2.517940 -1.075380 -23.745100 -11.754300 -0.000006 -0.000006 0.000801 0.152871 -10.373500
